<svg width="32" height="32" fill="none" xmlns="http://www.w3.org/2000/svg"><path opacity=".1" fill-rule="evenodd" clip-rule="evenodd" d="M0 16C0 7.164 7.163 0 16 0s16 7.164 16 16c0 8.837-7.163 16-16 16S0 24.837 0 16z" fill="#161A34"/><path fill-rule="evenodd" clip-rule="evenodd" d="M15.52 13.005l.034.554-.56-.068c-2.036-.26-3.816-1.141-5.326-2.621l-.74-.734-.19.542c-.402 1.209-.145 2.486.695 3.344.447.475.346.543-.426.26-.268-.09-.503-.158-.526-.124-.078.079.19 1.107.403 1.514.291.565.884 1.118 1.533 1.446l.549.26-.65.011c-.626 0-.648.012-.581.249.224.734 1.108 1.514 2.093 1.853l.693.237-.604.362a6.3 6.3 0 01-3 .836c-.503.011-.917.056-.917.09 0 .113 1.365.746 2.16.994 2.384.735 5.215.418 7.342-.836 1.51-.892 3.021-2.666 3.727-4.384.38-.915.76-2.587.76-3.39 0-.519.034-.587.66-1.208.37-.362.717-.757.784-.87.112-.215.101-.215-.47-.023-.951.34-1.085.294-.615-.214.347-.362.76-1.017.76-1.21 0-.033-.167.023-.357.125-.202.113-.65.282-.985.384l-.605.192-.548-.373c-.302-.203-.727-.43-.951-.497-.571-.158-1.444-.135-1.959.045-1.399.509-2.283 1.82-2.182 3.254z" fill="#161A34"/></svg>