<svg width="80" height="28" fill="none" xmlns="http://www.w3.org/2000/svg"><path d="M65.972 27.725c7.51 0 13.619-6.184 13.619-13.785 0-7.605-6.11-13.785-13.619-13.785-7.51 0-13.619 6.18-13.619 13.785 0 7.6 6.108 13.785 13.619 13.785zm0-18.7c2.676 0 4.855 2.204 4.855 4.913 0 2.71-2.18 4.911-4.856 4.911-2.678 0-4.854-2.201-4.854-4.912 0-2.712 2.177-4.915 4.854-4.915l.001.003zm-51.382 18.7c7.509 0 13.619-6.184 13.619-13.785 0-7.605-6.11-13.785-13.62-13.785C7.083.155.972 6.335.972 13.94c0 7.6 6.111 13.785 13.619 13.785zm0-18.7c2.677 0 4.855 2.204 4.855 4.913 0 2.71-2.178 4.911-4.855 4.911-2.676 0-4.853-2.201-4.853-4.912 0-2.712 2.178-4.915 4.853-4.915v.003zm25.683-.311L36.093.335h-9.79l9.143 18.33v8.63h9.656v-8.63L54.246.335h-9.794l-4.177 8.379h-.002z" fill="#EE2E24"/></svg>